# xmcd
#
# Track frame offsets: 
#        150
#        16401
#        26839
#        37967
#        54680
#        66950
#        78402
#        90176
#        104082
#        114939
#        125686
#        137934
#        147191
#        157038
#        166548
#        178376
#        191767
#        206047
#        218799
#        234607
#
# Disc length: 3304 seconds
#
# Revision: 1
# Processed by: cddbd v1.5.2PL0 Copyright (c) Steve Scherf et al.
# Submitted via: ExactAudioCopy v0.99pb5
#
DISCID=230ce614
DTITLE=Eitweger Trio  - Zwischen Glockner und der Koralm
DYEAR=2005
DGENRE=Folk
TTITLE0=Kärtner Heimatwalzer Zwischen Glockner und Koralm
TTITLE1=Koralm See
TTITLE2=Der wilde Stier
TTITLE3=Du mei Kärntn, liebe Hamat
TTITLE4=Die Fischerin vom Bodensee
TTITLE5=Schade, ewig schade
TTITLE6=Wohl in der Wiederschwing
TTITLE7=Kerzengrad
TTITLE8=Mit Schwung
TTITLE9=Drei Tage war der Papa krank
TTITLE10=Wir bleiben Freunde
TTITLE11=Klingende Harmonika
TTITLE12=Das liebe Geld
TTITLE13=I kenn a klans Hütterl
TTITLE14=Holzknechtbuam
TTITLE15=Frühlingswalzer
TTITLE16=Mein Lavanttal
TTITLE17=Ich spiel für dich
TTITLE18=Liebe kleine Amsel
TTITLE19=Urlaubsgrüße
EXTD=
EXTT0=
EXTT1=
EXTT2=
EXTT3=
EXTT4=
EXTT5=
EXTT6=
EXTT7=
EXTT8=
EXTT9=
EXTT10=
EXTT11=
EXTT12=
EXTT13=
EXTT14=
EXTT15=
EXTT16=
EXTT17=
EXTT18=
EXTT19=
PLAYORDER=
